<?xml version="1.0" standalone="no"?>
<!DOCTYPE svg PUBLIC "-//W3C//DTD SVG 20010904//EN"
 "http://www.w3.org/TR/2001/REC-SVG-20010904/DTD/svg10.dtd">
<svg version="1.0" xmlns="http://www.w3.org/2000/svg"
 width="512.000000pt" height="512.000000pt" viewBox="0 0 512.000000 512.000000"
 preserveAspectRatio="xMidYMid meet">
<metadata>
Created by potrace 1.14, written by Peter Selinger 2001-2017
</metadata>
<g transform="translate(0.000000,512.000000) scale(0.100000,-0.100000)"
fill="#000000" stroke="none">
<path d="M2379 5116 c-2 -2 -35 -7 -73 -11 -38 -3 -72 -8 -75 -9 -3 -2 -27 -7
-53 -10 -100 -14 -378 -94 -402 -117 -6 -5 -16 -9 -22 -9 -17 0 -169 -72 -246
-117 -63 -36 -199 -123 -208 -133 -3 -3 -36 -30 -75 -60 -209 -163 -419 -417
-552 -670 -83 -157 -178 -420 -199 -549 -2 -14 -6 -35 -9 -47 -3 -12 -7 -39
-10 -60 -4 -21 -8 -50 -11 -64 -2 -14 -7 -65 -10 -115 -6 -84 -8 -92 -38 -122
-38 -37 -56 -90 -56 -159 l0 -49 -73 -2 c-112 -2 -182 -41 -235 -132 l-27 -46
-3 -564 c-3 -627 -3 -630 61 -702 50 -56 109 -82 199 -87 l78 -5 0 -46 c0 -99
41 -170 112 -194 26 -9 110 -13 290 -12 233 1 257 3 299 22 58 26 105 74 132
133 20 44 21 59 20 870 0 912 4 858 -65 935 -37 43 -90 72 -147 81 -37 6 -40
9 -37 33 3 14 7 53 11 86 3 33 10 83 15 110 6 28 12 59 14 70 11 53 73 229
108 305 127 275 362 541 618 698 190 117 460 209 675 230 410 41 807 -66 1130
-303 297 -218 488 -494 605 -870 14 -47 40 -180 46 -238 2 -28 7 -67 9 -84 5
-30 3 -33 -23 -33 -42 0 -124 -43 -160 -84 -69 -79 -65 -23 -65 -936 -1 -812
-1 -826 20 -871 27 -60 84 -114 145 -137 44 -16 80 -18 307 -17 l258 1 41 27
c53 35 74 76 80 159 l5 68 51 1 c80 1 102 6 156 35 55 30 103 92 120 156 7 24
10 240 8 600 l-3 563 -27 46 c-53 90 -123 130 -234 132 l-72 2 -4 71 c-5 72
-24 114 -70 154 -12 11 -18 38 -22 100 -24 341 -138 693 -318 980 -106 169
-306 397 -453 516 -180 146 -390 267 -609 351 -93 35 -281 88 -351 98 -57 8
-96 14 -130 21 -34 7 -440 16 -446 10z m335 -180 c45 -3 90 -8 101 -10 11 -2
42 -7 68 -10 167 -25 361 -88 542 -176 515 -252 892 -716 1035 -1275 15 -60
31 -130 35 -155 4 -25 9 -52 10 -62 2 -9 6 -53 10 -97 l6 -82 -87 3 -87 3 -3
40 c-3 43 -14 138 -20 170 -75 393 -238 708 -501 967 -297 294 -659 468 -1073
517 -72 8 -364 7 -405 -2 -11 -2 -42 -8 -68 -11 -328 -48 -689 -226 -937 -461
-232 -220 -382 -457 -481 -757 -38 -115 -76 -299 -80 -384 -4 -85 -1 -83 -95
-83 l-84 0 5 62 c7 103 16 166 39 272 108 507 444 975 897 1251 167 102 403
201 544 228 11 3 41 9 68 15 26 6 64 14 85 17 20 3 43 7 50 9 7 3 64 8 125 11
62 4 113 7 114 8 3 2 109 -2 187 -8z m-1725 -2053 c12 -10 25 -31 29 -48 4
-16 7 -380 7 -808 l-1 -777 -27 -28 -27 -27 -228 0 -227 0 -2 853 -2 852 228
0 c203 0 231 -2 250 -17z m3620 -832 c0 -643 -3 -850 -12 -853 -7 -3 -110 -4
-229 -4 l-218 1 -27 28 -27 27 -1 782 c-1 443 3 795 8 811 18 54 31 57 279 57
l227 0 0 -849z m-4269 -3 l0 -598 -56 0 c-48 0 -59 4 -85 29 l-29 29 0 537 c0
364 3 543 11 556 14 28 58 45 113 45 l46 0 0 -598z m4567 584 c13 -7 27 -21
33 -32 6 -12 10 -209 10 -555 l0 -537 -29 -29 c-26 -25 -37 -29 -85 -29 l-56
0 0 598 0 598 53 -1 c28 0 62 -6 74 -13z"/>
<path d="M2335 4335 c-321 -51 -607 -193 -838 -415 -109 -106 -139 -146 -133
-181 3 -13 5 -27 5 -31 2 -20 48 -48 78 -48 29 0 46 13 126 94 132 134 229
206 366 275 126 64 258 109 361 126 19 3 60 10 90 15 57 9 332 6 385 -5 330
-68 535 -175 753 -392 98 -98 117 -113 146 -113 59 0 102 70 75 122 -22 44
-225 233 -315 295 -192 131 -421 224 -639 258 -90 14 -370 14 -460 0z"/>
<path d="M2325 3986 c-130 -28 -219 -60 -335 -123 -182 -98 -390 -294 -390
-367 0 -36 49 -86 86 -86 21 0 47 21 118 93 102 105 173 160 279 217 71 38
193 84 252 94 17 3 53 10 80 15 78 16 297 6 386 -18 194 -51 362 -147 489
-281 25 -26 60 -64 78 -84 26 -27 41 -36 67 -36 41 0 72 25 84 67 8 28 5 38
-21 75 -45 65 -183 194 -267 251 -131 88 -323 167 -466 192 -22 3 -105 8 -185
10 -123 3 -162 0 -255 -19z"/>
<path d="M2427 3659 c-331 -53 -604 -301 -691 -627 -29 -110 -28 -95 -30 -802
-1 -638 2 -721 33 -835 51 -186 180 -369 332 -473 59 -39 182 -102 203 -102 8
0 18 -5 22 -11 8 -13 13 -253 6 -281 -4 -16 -22 -18 -198 -18 -152 0 -203 -3
-231 -15 -82 -35 -145 -105 -159 -180 -9 -49 -9 -222 -1 -257 15 -60 -9 -58
855 -58 l789 0 27 25 c28 26 28 27 28 181 0 120 -23 185 -80 236 -72 62 -100
68 -316 69 -108 0 -196 3 -197 7 -4 29 -4 274 1 281 3 4 34 21 70 36 84 37
181 100 247 159 136 123 243 328 269 516 13 87 7 1401 -6 1455 -6 28 -14 61
-16 75 -8 39 -55 150 -87 205 -128 219 -357 376 -602 414 -71 11 -201 11 -268
0z m305 -182 c26 -7 50 -16 54 -20 4 -4 15 -7 23 -7 29 0 165 -87 222 -143 67
-65 110 -125 150 -211 32 -68 59 -177 59 -241 l0 -40 -229 0 c-210 0 -231 -2
-250 -19 -48 -43 -33 -123 26 -143 15 -5 124 -9 241 -8 185 1 212 -1 213 -14
4 -74 3 -129 -2 -141 -7 -14 -38 -16 -225 -15 -187 0 -221 -2 -245 -17 -53
-32 -46 -125 11 -146 11 -4 119 -7 240 -7 l220 0 1 -22 c1 -30 1 -108 0 -131
-1 -18 -14 -19 -211 -18 -115 1 -223 -2 -240 -7 -31 -8 -60 -49 -60 -86 0 -11
11 -33 24 -48 l24 -28 227 -1 c146 -1 229 -5 234 -12 5 -8 6 -78 2 -144 -1
-16 -49 -17 -681 -17 -530 0 -680 2 -681 12 -5 76 -2 157 6 158 6 0 111 1 233
2 l224 2 24 28 c13 15 24 37 24 48 0 34 -28 76 -57 86 -15 4 -124 8 -240 7
l-213 0 -1 30 c-3 77 -1 127 5 133 3 4 107 7 230 7 203 1 226 3 244 20 47 42
33 122 -24 141 -17 6 -126 10 -242 10 -117 -1 -212 2 -213 5 -4 35 -2 145 3
153 5 9 72 12 225 13 154 0 225 4 241 13 46 25 52 100 10 137 -18 17 -41 19
-246 20 l-227 1 -1 49 c-4 230 184 488 426 584 120 48 304 59 422 27z m505
-1925 c-11 -140 -82 -294 -184 -399 -74 -76 -115 -106 -206 -149 -351 -167
-776 2 -920 366 -27 69 -47 161 -47 217 l0 33 681 0 681 0 -5 -68z m-592 -909
l0 -128 -82 -3 c-46 -2 -84 1 -84 5 -1 4 -2 63 -3 131 l-2 122 86 0 85 0 0
-127z m565 -321 c23 -19 39 -83 32 -129 l-3 -23 -679 0 c-767 0 -691 -9 -679
84 11 92 -38 86 679 86 592 0 629 -1 650 -18z"/>
</g>
</svg>
